<svg width="282" height="93" viewBox="0 0 282 93" fill="none" xmlns="http://www.w3.org/2000/svg">
<ellipse cx="14.2785" cy="8.45316" rx="14.2785" ry="8.45316" transform="matrix(-0.77313 -0.634248 -0.634248 0.77313 281.866 32.5537)" fill="#F3BD13"/>
<ellipse cx="227.401" cy="30.033" rx="14.2785" ry="8.45316" transform="rotate(-39.3642 227.401 30.033)" fill="#F3BD13"/>
<g filter="url(#filter0_d_6159_546)">
<path d="M253.944 15.1612C255.656 12.0067 259.477 10.659 262.789 12.0416L267.364 13.9515C270.676 15.3341 272.405 18.9985 271.366 22.4337L267.501 35.21C266.301 39.1774 261.934 41.2375 258.109 39.6407L251.032 36.6866C247.207 35.0898 245.601 30.5364 247.578 26.8932L253.944 15.1612Z" fill="#F3BD13"/>
</g>
<g filter="url(#filter1_d_6159_546)">
<path d="M238.922 15.1612C237.21 12.0067 233.389 10.659 230.077 12.0416L225.502 13.9515C222.19 15.3341 220.461 18.9985 221.501 22.4337L225.365 35.21C226.565 39.1774 230.932 41.2375 234.757 39.6407L241.834 36.6866C245.659 35.0898 247.265 30.5364 245.288 26.8932L238.922 15.1612Z" fill="#F3BD13"/>
</g>
<g filter="url(#filter2_d_6159_546)">
<path d="M235.069 12.6747C234.668 8.56211 237.901 5 242.033 5H250.865C254.997 5 258.229 8.56211 257.828 12.6747L255.693 34.597C255.344 38.1814 252.331 40.9152 248.73 40.9152H244.168C240.567 40.9152 237.553 38.1814 237.204 34.597L235.069 12.6747Z" fill="#F3BD13"/>
</g>
<path d="M233.375 20.7218C233.375 19.697 234.206 18.8662 235.231 18.8662H239.399C240.423 18.8662 241.254 19.697 241.254 20.7218V22.9678C241.254 25.1434 239.491 26.9071 237.315 26.9071V26.9071C235.139 26.9071 233.375 25.1434 233.375 22.9678V20.7218Z" fill="#FFEDB2"/>
<path d="M251.654 20.7218C251.654 19.697 252.485 18.8662 253.51 18.8662H257.677C258.702 18.8662 259.533 19.697 259.533 20.7218V22.9678C259.533 25.1434 257.769 26.9071 255.594 26.9071V26.9071C253.418 26.9071 251.654 25.1434 251.654 22.9678V20.7218Z" fill="#FFEDB2"/>
<path d="M21.36 19.53H25.14V40.14C25.14 41.22 25 42.05 24.72 42.63C24.44 43.23 23.93 43.68 23.19 43.98C22.47 44.28 21.55 44.46 20.43 44.52C19.31 44.6 17.98 44.64 16.44 44.64C16.36 44.28 16.24 43.86 16.08 43.38C15.92 42.92 15.73 42.46 15.51 42C15.31 41.54 15.11 41.15 14.91 40.83C15.65 40.85 16.39 40.87 17.13 40.89C17.89 40.91 18.57 40.92 19.17 40.92C19.77 40.92 20.19 40.92 20.43 40.92C20.77 40.92 21.01 40.86 21.15 40.74C21.29 40.62 21.36 40.4 21.36 40.08V19.53ZM4.23 25.53H7.71V39.51H4.23V25.53ZM5.7 25.53H17.01V37.2H5.7V33.75H13.47V28.95H5.7V25.53ZM1.44 18.51H28.62V22.17H1.44V18.51ZM40.29 32.37L43.2 31.41C43.58 32.35 43.97 33.37 44.37 34.47C44.77 35.57 45.12 36.63 45.42 37.65C45.74 38.67 45.97 39.58 46.11 40.38L42.96 41.55C42.84 40.77 42.64 39.86 42.36 38.82C42.08 37.76 41.76 36.67 41.4 35.55C41.04 34.41 40.67 33.35 40.29 32.37ZM35.46 17.34L38.67 18.03C38.37 19.57 37.99 21.1 37.53 22.62C37.09 24.12 36.58 25.52 36 26.82C35.42 28.12 34.79 29.27 34.11 30.27C33.95 30.05 33.71 29.79 33.39 29.49C33.09 29.19 32.77 28.89 32.43 28.59C32.11 28.27 31.83 28.02 31.59 27.84C32.21 27 32.76 26.02 33.24 24.9C33.74 23.78 34.17 22.57 34.53 21.27C34.91 19.97 35.22 18.66 35.46 17.34ZM33.9 42.39C33.84 42.15 33.74 41.83 33.6 41.43C33.48 41.03 33.35 40.61 33.21 40.17C33.07 39.73 32.93 39.36 32.79 39.06C33.11 38.96 33.39 38.72 33.63 38.34C33.87 37.96 34.13 37.43 34.41 36.75C34.55 36.43 34.74 35.92 34.98 35.22C35.24 34.5 35.52 33.65 35.82 32.67C36.12 31.69 36.4 30.64 36.66 29.52C36.94 28.4 37.18 27.28 37.38 26.16L40.86 27.03C40.5 28.61 40.07 30.21 39.57 31.83C39.07 33.43 38.54 34.96 37.98 36.42C37.44 37.88 36.89 39.2 36.33 40.38V40.44C36.33 40.44 36.21 40.51 35.97 40.65C35.73 40.77 35.44 40.94 35.1 41.16C34.78 41.36 34.5 41.57 34.26 41.79C34.02 42.01 33.9 42.21 33.9 42.39ZM33.87 42.39L33.66 39.63L35.1 38.58L44.31 36.9C44.35 37.34 44.43 37.84 44.55 38.4C44.67 38.94 44.78 39.38 44.88 39.72C42.68 40.16 40.9 40.53 39.54 40.83C38.18 41.11 37.13 41.35 36.39 41.55C35.65 41.73 35.1 41.88 34.74 42C34.38 42.14 34.09 42.27 33.87 42.39ZM39.69 18.33L42.6 17.19C43.14 18.29 43.68 19.47 44.22 20.73C44.76 21.97 45.23 23.19 45.63 24.39C46.05 25.57 46.35 26.63 46.53 27.57L43.32 28.95C43.16 28.03 42.88 26.96 42.48 25.74C42.1 24.52 41.67 23.27 41.19 21.99C40.71 20.69 40.21 19.47 39.69 18.33ZM45.24 17.94H59.94V21.15H45.24V17.94ZM49.71 29.91V31.53H55.5V29.91H49.71ZM49.71 34.08V35.7H55.5V34.08H49.71ZM49.71 25.8V27.39H55.5V25.8H49.71ZM46.5 23.1H58.83V38.4H46.5V23.1ZM51.21 20.07L54.93 20.58C54.47 21.44 53.98 22.29 53.46 23.13C52.94 23.95 52.47 24.66 52.05 25.26L49.23 24.69C49.49 24.25 49.74 23.76 49.98 23.22C50.22 22.66 50.45 22.11 50.67 21.57C50.89 21.03 51.07 20.53 51.21 20.07ZM49.44 38.34L52.26 40.32C51.5 41.14 50.55 41.93 49.41 42.69C48.27 43.47 47.13 44.09 45.99 44.55C45.79 44.19 45.52 43.76 45.18 43.26C44.86 42.76 44.54 42.33 44.22 41.97C44.86 41.69 45.51 41.35 46.17 40.95C46.83 40.55 47.45 40.12 48.03 39.66C48.61 39.18 49.08 38.74 49.44 38.34ZM53.28 40.47L55.05 38.13C55.65 38.47 56.29 38.87 56.97 39.33C57.65 39.77 58.31 40.22 58.95 40.68C59.59 41.12 60.11 41.52 60.51 41.88L58.65 44.52C58.27 44.14 57.77 43.7 57.15 43.2C56.55 42.72 55.91 42.24 55.23 41.76C54.55 41.28 53.9 40.85 53.28 40.47ZM75.03 16.56H79.17C79.13 17.58 79.07 18.81 78.99 20.25C78.91 21.69 78.75 23.26 78.51 24.96C78.27 26.64 77.88 28.37 77.34 30.15C76.8 31.93 76.06 33.7 75.12 35.46C74.2 37.2 73.01 38.86 71.55 40.44C70.11 42 68.34 43.4 66.24 44.64C65.92 44.16 65.49 43.65 64.95 43.11C64.41 42.59 63.84 42.12 63.24 41.7C65.28 40.6 66.99 39.35 68.37 37.95C69.75 36.53 70.86 35.02 71.7 33.42C72.56 31.82 73.22 30.21 73.68 28.59C74.14 26.97 74.46 25.4 74.64 23.88C74.82 22.36 74.92 20.97 74.94 19.71C74.98 18.45 75.01 17.4 75.03 16.56ZM78.84 20.19C78.88 20.59 78.95 21.27 79.05 22.23C79.17 23.19 79.38 24.32 79.68 25.62C79.98 26.9 80.41 28.27 80.97 29.73C81.55 31.19 82.3 32.65 83.22 34.11C84.16 35.55 85.33 36.9 86.73 38.16C88.13 39.42 89.8 40.48 91.74 41.34C91.18 41.76 90.66 42.25 90.18 42.81C89.72 43.39 89.36 43.94 89.1 44.46C87.06 43.48 85.3 42.29 83.82 40.89C82.36 39.49 81.14 37.98 80.16 36.36C79.18 34.72 78.38 33.08 77.76 31.44C77.16 29.8 76.7 28.25 76.38 26.79C76.06 25.33 75.83 24.06 75.69 22.98C75.55 21.88 75.44 21.08 75.36 20.58L78.84 20.19ZM110.43 19.68H118.35V22.77H110.43V19.68ZM107.34 33.42H120.42V44.61H116.94V36.45H110.67V44.7H107.34V33.42ZM108.66 40.56H118.86V43.65H108.66V40.56ZM110.76 16.47L114.21 17.43C113.65 18.79 112.99 20.12 112.23 21.42C111.47 22.72 110.64 23.93 109.74 25.05C108.86 26.17 107.95 27.15 107.01 27.99C106.83 27.77 106.57 27.51 106.23 27.21C105.89 26.89 105.54 26.58 105.18 26.28C104.84 25.98 104.53 25.74 104.25 25.56C105.63 24.5 106.89 23.17 108.03 21.57C109.19 19.95 110.1 18.25 110.76 16.47ZM117.42 19.68H118.05L118.65 19.56L120.93 20.61C120.29 22.51 119.46 24.25 118.44 25.83C117.44 27.41 116.28 28.82 114.96 30.06C113.64 31.3 112.2 32.39 110.64 33.33C109.1 34.27 107.48 35.05 105.78 35.67C105.56 35.25 105.25 34.75 104.85 34.17C104.47 33.59 104.1 33.12 103.74 32.76C105.3 32.3 106.79 31.67 108.21 30.87C109.65 30.05 110.97 29.11 112.17 28.05C113.39 26.97 114.45 25.78 115.35 24.48C116.25 23.16 116.94 21.76 117.42 20.28V19.68ZM110.58 21.78C111.2 23.1 112.09 24.44 113.25 25.8C114.41 27.14 115.82 28.36 117.48 29.46C119.16 30.56 121.05 31.41 123.15 32.01C122.93 32.23 122.67 32.52 122.37 32.88C122.09 33.24 121.82 33.61 121.56 33.99C121.32 34.37 121.12 34.7 120.96 34.98C118.8 34.22 116.86 33.21 115.14 31.95C113.44 30.67 111.98 29.26 110.76 27.72C109.56 26.18 108.6 24.66 107.88 23.16L110.58 21.78ZM94.95 22.71H105.66V26.04H94.95V22.71ZM98.91 16.5H102.3V44.67H98.91V16.5ZM98.85 25.02L100.92 25.71C100.68 26.91 100.39 28.16 100.05 29.46C99.73 30.74 99.35 32 98.91 33.24C98.47 34.46 98 35.6 97.5 36.66C97 37.72 96.47 38.63 95.91 39.39C95.75 38.91 95.5 38.36 95.16 37.74C94.82 37.12 94.51 36.59 94.23 36.15C94.75 35.49 95.24 34.72 95.7 33.84C96.16 32.96 96.59 32.03 96.99 31.05C97.41 30.05 97.77 29.04 98.07 28.02C98.39 26.98 98.65 25.98 98.85 25.02ZM102.18 26.64C102.36 26.8 102.62 27.08 102.96 27.48C103.32 27.88 103.7 28.32 104.1 28.8C104.5 29.28 104.86 29.72 105.18 30.12C105.52 30.52 105.76 30.8 105.9 30.96L103.95 33.69C103.77 33.31 103.53 32.87 103.23 32.37C102.95 31.87 102.64 31.35 102.3 30.81C101.98 30.27 101.66 29.76 101.34 29.28C101.04 28.8 100.78 28.41 100.56 28.11L102.18 26.64ZM137.04 26.22V28.77H139.98V26.22H137.04ZM137.04 31.65V34.23H139.98V31.65H137.04ZM137.04 20.82V23.34H139.98V20.82H137.04ZM134.01 17.7H143.13V37.35H134.01V17.7ZM139.08 38.88L141.81 37.35C142.19 37.81 142.58 38.32 142.98 38.88C143.4 39.44 143.78 39.99 144.12 40.53C144.48 41.07 144.77 41.55 144.99 41.97L142.11 43.68C141.93 43.26 141.67 42.77 141.33 42.21C140.99 41.65 140.62 41.08 140.22 40.5C139.84 39.9 139.46 39.36 139.08 38.88ZM134.82 37.62L138.09 38.52C137.61 39.66 137 40.8 136.26 41.94C135.52 43.08 134.79 44.03 134.07 44.79C133.85 44.61 133.56 44.4 133.2 44.16C132.86 43.92 132.51 43.69 132.15 43.47C131.79 43.25 131.48 43.07 131.22 42.93C131.94 42.27 132.62 41.46 133.26 40.5C133.92 39.54 134.44 38.58 134.82 37.62ZM149.58 16.5H152.85V40.65C152.85 41.55 152.75 42.26 152.55 42.78C152.37 43.3 152.01 43.7 151.47 43.98C150.95 44.26 150.28 44.44 149.46 44.52C148.66 44.62 147.67 44.67 146.49 44.67C146.43 44.19 146.3 43.61 146.1 42.93C145.9 42.27 145.69 41.7 145.47 41.22C146.23 41.24 146.94 41.26 147.6 41.28C148.26 41.28 148.71 41.28 148.95 41.28C149.19 41.26 149.35 41.21 149.43 41.13C149.53 41.03 149.58 40.87 149.58 40.65V16.5ZM144.63 19.59H147.72V36.99H144.63V19.59ZM126.78 19.38L128.82 16.77C129.36 16.99 129.93 17.26 130.53 17.58C131.15 17.9 131.73 18.24 132.27 18.6C132.83 18.94 133.28 19.27 133.62 19.59L131.46 22.47C131.16 22.13 130.74 21.78 130.2 21.42C129.68 21.04 129.12 20.67 128.52 20.31C127.92 19.95 127.34 19.64 126.78 19.38ZM125.64 27.42L127.62 24.75C128.18 24.97 128.76 25.23 129.36 25.53C129.98 25.81 130.56 26.12 131.1 26.46C131.66 26.78 132.11 27.09 132.45 27.39L130.35 30.3C130.03 30 129.6 29.67 129.06 29.31C128.54 28.95 127.98 28.61 127.38 28.29C126.78 27.95 126.2 27.66 125.64 27.42ZM126.15 42.51C126.53 41.73 126.94 40.81 127.38 39.75C127.84 38.69 128.3 37.57 128.76 36.39C129.24 35.19 129.67 34.01 130.05 32.85L132.96 34.71C132.64 35.79 132.28 36.89 131.88 38.01C131.48 39.11 131.07 40.2 130.65 41.28C130.23 42.34 129.81 43.37 129.39 44.37L126.15 42.51ZM160.02 22.56H168.24V25.23H160.02V22.56ZM160.02 27H168.33V29.67H160.02V27ZM162.9 19.98H165.63V33.54H162.9V19.98ZM163.65 35.55L164.91 35.13C165.17 35.75 165.42 36.42 165.66 37.14C165.92 37.86 166.1 38.47 166.2 38.97L164.88 39.48C164.76 38.94 164.58 38.31 164.34 37.59C164.1 36.85 163.87 36.17 163.65 35.55ZM161.88 35.91L163.32 35.67C163.5 36.43 163.67 37.27 163.83 38.19C163.99 39.09 164.1 39.87 164.16 40.53L162.66 40.83C162.62 40.15 162.52 39.35 162.36 38.43C162.22 37.51 162.06 36.67 161.88 35.91ZM160.05 36.12L161.52 35.97C161.62 36.85 161.69 37.8 161.73 38.82C161.79 39.84 161.81 40.72 161.79 41.46L160.23 41.64C160.25 40.88 160.24 39.99 160.2 38.97C160.18 37.93 160.13 36.98 160.05 36.12ZM157.95 35.49L159.78 36.09C159.7 36.75 159.6 37.49 159.48 38.31C159.38 39.11 159.26 39.9 159.12 40.68C158.98 41.44 158.83 42.1 158.67 42.66L156.72 41.97C156.92 41.39 157.1 40.73 157.26 39.99C157.42 39.23 157.56 38.46 157.68 37.68C157.8 36.88 157.89 36.15 157.95 35.49ZM166.17 31.5H168.96C168.96 31.5 168.96 31.65 168.96 31.95C168.96 32.23 168.95 32.46 168.93 32.64C168.89 35.06 168.83 37.01 168.75 38.49C168.67 39.97 168.56 41.1 168.42 41.88C168.3 42.64 168.13 43.17 167.91 43.47C167.67 43.81 167.42 44.05 167.16 44.19C166.9 44.33 166.59 44.42 166.23 44.46C165.93 44.52 165.56 44.56 165.12 44.58C164.7 44.6 164.25 44.6 163.77 44.58C163.75 44.16 163.67 43.7 163.53 43.2C163.39 42.7 163.23 42.27 163.05 41.91C163.43 41.95 163.77 41.98 164.07 42C164.37 42 164.6 42 164.76 42C164.92 42 165.06 41.98 165.18 41.94C165.3 41.9 165.41 41.81 165.51 41.67C165.63 41.49 165.73 41.07 165.81 40.41C165.89 39.75 165.96 38.75 166.02 37.41C166.08 36.07 166.13 34.27 166.17 32.01V31.5ZM168.72 17.67V20.61H161.07V31.5H167.58V34.44H158.28V17.67H168.72ZM172.08 29.7V32.55H173.76V29.7H172.08ZM169.74 27.45H176.22V34.8H169.74V27.45ZM179.52 29.7V32.55H181.38V29.7H179.52ZM177.18 27.45H183.87V34.8H177.18V27.45ZM171.75 35.37L174.75 35.91C174.37 37.67 173.82 39.32 173.1 40.86C172.38 42.4 171.52 43.69 170.52 44.73C170.34 44.53 170.11 44.3 169.83 44.04C169.55 43.8 169.26 43.56 168.96 43.32C168.66 43.08 168.39 42.88 168.15 42.72C169.07 41.86 169.83 40.79 170.43 39.51C171.03 38.23 171.47 36.85 171.75 35.37ZM172.29 23.13H181.14V25.86H172.29V23.13ZM171.66 39.9L173.4 37.77C174 38.11 174.65 38.53 175.35 39.03C176.05 39.53 176.6 39.99 177 40.41L175.2 42.75C174.84 42.33 174.31 41.85 173.61 41.31C172.93 40.77 172.28 40.3 171.66 39.9ZM179.13 35.25L182.28 35.79C182 37.59 181.53 39.27 180.87 40.83C180.23 42.39 179.45 43.69 178.53 44.73C178.35 44.55 178.1 44.33 177.78 44.07C177.46 43.83 177.13 43.59 176.79 43.35C176.47 43.11 176.18 42.91 175.92 42.75C176.78 41.87 177.47 40.78 177.99 39.48C178.51 38.16 178.89 36.75 179.13 35.25ZM178.53 40.89L180.54 38.7C181.04 39 181.57 39.35 182.13 39.75C182.69 40.13 183.22 40.51 183.72 40.89C184.24 41.27 184.65 41.62 184.95 41.94L182.88 44.4C182.58 44.06 182.18 43.68 181.68 43.26C181.18 42.86 180.65 42.45 180.09 42.03C179.55 41.61 179.03 41.23 178.53 40.89ZM175.92 16.11L179.13 17.22C178.11 18.96 176.81 20.55 175.23 21.99C173.67 23.41 172 24.63 170.22 25.65C170.06 25.43 169.84 25.18 169.56 24.9C169.3 24.6 169.03 24.31 168.75 24.03C168.49 23.75 168.25 23.52 168.03 23.34C169.13 22.76 170.18 22.08 171.18 21.3C172.18 20.52 173.08 19.69 173.88 18.81C174.7 17.91 175.38 17.01 175.92 16.11ZM177.42 17.07C178 17.71 178.72 18.36 179.58 19.02C180.46 19.66 181.39 20.26 182.37 20.82C183.37 21.38 184.34 21.85 185.28 22.23C185.12 22.49 184.94 22.83 184.74 23.25C184.56 23.65 184.4 24.05 184.26 24.45C184.12 24.85 184.02 25.2 183.96 25.5C182.9 24.96 181.81 24.31 180.69 23.55C179.59 22.79 178.55 21.98 177.57 21.12C176.59 20.26 175.74 19.42 175.02 18.6L177.42 17.07ZM202.2 26.52C201.4 26.52 200.72 26.25 200.16 25.71C199.62 25.17 199.35 24.51 199.35 23.73C199.35 22.89 199.62 22.21 200.16 21.69C200.72 21.15 201.4 20.88 202.2 20.88C203 20.88 203.67 21.15 204.21 21.69C204.77 22.21 205.05 22.89 205.05 23.73C205.05 24.51 204.77 25.17 204.21 25.71C203.67 26.25 203 26.52 202.2 26.52ZM202.2 40.83C201.4 40.83 200.72 40.56 200.16 40.02C199.62 39.48 199.35 38.82 199.35 38.04C199.35 37.2 199.62 36.52 200.16 36C200.72 35.46 201.4 35.19 202.2 35.19C203 35.19 203.67 35.46 204.21 36C204.77 36.52 205.05 37.2 205.05 38.04C205.05 38.82 204.77 39.48 204.21 40.02C203.67 40.56 203 40.83 202.2 40.83ZM13.53 58.62L17.07 59.43C16.65 60.99 16.14 62.54 15.54 64.08C14.94 65.6 14.28 67.03 13.56 68.37C12.86 69.69 12.11 70.85 11.31 71.85C11.09 71.63 10.8 71.37 10.44 71.07C10.1 70.77 9.74 70.48 9.36 70.2C9 69.9 8.68 69.66 8.4 69.48C9.18 68.62 9.89 67.61 10.53 66.45C11.17 65.29 11.74 64.04 12.24 62.7C12.76 61.36 13.19 60 13.53 58.62ZM12.69 71.94L16.2 72.66C15.92 73.94 15.56 75.2 15.12 76.44C14.7 77.66 14.23 78.82 13.71 79.92C13.19 81 12.65 81.95 12.09 82.77C11.87 82.57 11.57 82.35 11.19 82.11C10.81 81.85 10.42 81.61 10.02 81.39C9.64 81.15 9.31 80.96 9.03 80.82C9.89 79.76 10.63 78.43 11.25 76.83C11.87 75.23 12.35 73.6 12.69 71.94ZM14.19 63.9H26.52V67.23H12.87L14.19 63.9ZM17.64 65.37H21.21V82.68C21.21 83.52 21.12 84.21 20.94 84.75C20.76 85.29 20.39 85.71 19.83 86.01C19.31 86.29 18.68 86.48 17.94 86.58C17.22 86.68 16.37 86.73 15.39 86.73C15.33 86.19 15.17 85.57 14.91 84.87C14.67 84.17 14.42 83.58 14.16 83.1C14.8 83.12 15.4 83.13 15.96 83.13C16.54 83.13 16.93 83.13 17.13 83.13C17.31 83.13 17.44 83.1 17.52 83.04C17.6 82.96 17.64 82.82 17.64 82.62V65.37ZM22.29 72.72L25.5 71.64C26.04 72.68 26.53 73.79 26.97 74.97C27.41 76.13 27.79 77.28 28.11 78.42C28.43 79.54 28.66 80.55 28.8 81.45L25.35 82.65C25.23 81.77 25.02 80.75 24.72 79.59C24.44 78.43 24.09 77.26 23.67 76.08C23.25 74.88 22.79 73.76 22.29 72.72ZM25.53 63.9H26.01L26.58 63.78L29.13 64.26C28.95 65.48 28.74 66.74 28.5 68.04C28.26 69.32 28.03 70.41 27.81 71.31L24.75 70.74C24.83 70.2 24.92 69.57 25.02 68.85C25.12 68.13 25.22 67.38 25.32 66.6C25.42 65.8 25.49 65.05 25.53 64.35V63.9ZM7.11 58.62L10.5 59.7C9.86 61.38 9.1 63.08 8.22 64.8C7.34 66.5 6.39 68.12 5.37 69.66C4.35 71.18 3.29 72.51 2.19 73.65C2.09 73.35 1.92 72.97 1.68 72.51C1.46 72.03 1.22 71.55 0.96 71.07C0.7 70.59 0.47 70.2 0.27 69.9C1.17 68.98 2.04 67.92 2.88 66.72C3.74 65.52 4.53 64.23 5.25 62.85C5.99 61.47 6.61 60.06 7.11 58.62ZM4.23 66.93L7.65 63.51V63.54V86.64H4.23V66.93ZM32.94 71.34H59.52V74.49H32.94V71.34ZM46.38 76.74H57.6V79.86H46.38V76.74ZM44.7 72.96H48.36V84.06H44.7V72.96ZM40.08 77.73C40.64 79.19 41.42 80.29 42.42 81.03C43.42 81.75 44.62 82.23 46.02 82.47C47.44 82.71 49.02 82.84 50.76 82.86C51.1 82.86 51.57 82.86 52.17 82.86C52.79 82.86 53.48 82.86 54.24 82.86C55 82.86 55.76 82.86 56.52 82.86C57.3 82.84 58.03 82.83 58.71 82.83C59.39 82.81 59.95 82.79 60.39 82.77C60.21 83.05 60.04 83.39 59.88 83.79C59.72 84.19 59.57 84.6 59.43 85.02C59.31 85.46 59.22 85.86 59.16 86.22H57.36H50.58C48.84 86.22 47.27 86.12 45.87 85.92C44.49 85.72 43.25 85.35 42.15 84.81C41.05 84.29 40.08 83.54 39.24 82.56C38.42 81.56 37.7 80.28 37.08 78.72L40.08 77.73ZM37.47 75.12L41.04 75.63C40.56 78.11 39.77 80.29 38.67 82.17C37.59 84.03 36.23 85.55 34.59 86.73C34.41 86.51 34.15 86.24 33.81 85.92C33.49 85.6 33.15 85.28 32.79 84.96C32.45 84.64 32.14 84.39 31.86 84.21C33.4 83.27 34.63 82.02 35.55 80.46C36.47 78.9 37.11 77.12 37.47 75.12ZM39.21 65.94V67.44H52.98V65.94H39.21ZM39.21 62.1V63.57H52.98V62.1H39.21ZM35.73 59.52H56.64V69.99H35.73V59.52ZM72.15 59.85H79.89V62.88H72.15V59.85ZM72.18 66.84H80.01V69.84H72.18V66.84ZM72.15 73.95H80.28V76.98H72.15V73.95ZM78.6 59.85H81.48C81.48 59.85 81.48 59.96 81.48 60.18C81.48 60.38 81.48 60.6 81.48 60.84C81.48 61.08 81.47 61.27 81.45 61.41C81.45 64.73 81.44 67.63 81.42 70.11C81.4 72.57 81.37 74.68 81.33 76.44C81.31 78.2 81.27 79.66 81.21 80.82C81.15 81.98 81.07 82.89 80.97 83.55C80.87 84.21 80.74 84.68 80.58 84.96C80.32 85.46 80.04 85.81 79.74 86.01C79.46 86.21 79.12 86.35 78.72 86.43C78.34 86.53 77.92 86.59 77.46 86.61C77 86.63 76.51 86.63 75.99 86.61C75.97 86.15 75.89 85.62 75.75 85.02C75.61 84.42 75.42 83.9 75.18 83.46C75.58 83.48 75.94 83.5 76.26 83.52C76.6 83.52 76.88 83.52 77.1 83.52C77.3 83.54 77.46 83.5 77.58 83.4C77.7 83.3 77.82 83.13 77.94 82.89C78.06 82.63 78.16 82.08 78.24 81.24C78.32 80.38 78.38 79.11 78.42 77.43C78.46 75.75 78.49 73.54 78.51 70.8C78.55 68.06 78.58 64.69 78.6 60.69V59.85ZM74.07 61.44H76.95V69.63C76.95 70.87 76.89 72.24 76.77 73.74C76.67 75.24 76.45 76.77 76.11 78.33C75.77 79.89 75.28 81.4 74.64 82.86C74 84.3 73.16 85.6 72.12 86.76C72 86.56 71.81 86.31 71.55 86.01C71.29 85.73 71.02 85.45 70.74 85.17C70.46 84.91 70.23 84.72 70.05 84.6C70.97 83.52 71.7 82.36 72.24 81.12C72.78 79.86 73.18 78.56 73.44 77.22C73.7 75.88 73.87 74.56 73.95 73.26C74.03 71.96 74.07 70.74 74.07 69.6V61.44ZM82.71 59.85H88.68V62.76H85.65V86.7H82.71V59.85ZM88.14 59.85H88.68L89.1 59.73L91.32 60.99C91.1 61.99 90.85 63.07 90.57 64.23C90.31 65.39 90.04 66.53 89.76 67.65C89.5 68.75 89.25 69.73 89.01 70.59C89.77 71.91 90.26 73.16 90.48 74.34C90.7 75.5 90.82 76.59 90.84 77.61C90.84 78.65 90.74 79.52 90.54 80.22C90.36 80.9 90.05 81.41 89.61 81.75C89.43 81.93 89.2 82.07 88.92 82.17C88.66 82.27 88.38 82.35 88.08 82.41C87.64 82.47 87.12 82.49 86.52 82.47C86.52 82.05 86.47 81.56 86.37 81C86.27 80.42 86.11 79.91 85.89 79.47C86.07 79.49 86.24 79.5 86.4 79.5C86.56 79.5 86.71 79.5 86.85 79.5C87.11 79.48 87.33 79.38 87.51 79.2C87.65 79.04 87.75 78.78 87.81 78.42C87.87 78.04 87.9 77.6 87.9 77.1C87.9 76.28 87.8 75.34 87.6 74.28C87.42 73.2 86.98 72.07 86.28 70.89C86.46 70.15 86.64 69.32 86.82 68.4C87 67.46 87.17 66.52 87.33 65.58C87.51 64.62 87.67 63.74 87.81 62.94C87.95 62.12 88.06 61.46 88.14 60.96V59.85ZM65.82 61.17H71.37V78.84H65.82V75.54H68.64V64.44H65.82V61.17ZM64.32 61.17H66.99V81.66H64.32V61.17ZM94.74 70.35H122.52V74.28H94.74V70.35ZM143.4 61.08H146.85V84.81H143.4V61.08ZM136.62 63.75H153.36V66.54H136.62V63.75ZM135.72 83.37H153.99V86.19H135.72V83.37ZM137.43 79.23H152.85V81.99H137.43V79.23ZM151.23 58.77L153.3 61.41C152.22 61.63 151.04 61.82 149.76 61.98C148.48 62.12 147.16 62.24 145.8 62.34C144.44 62.44 143.07 62.52 141.69 62.58C140.31 62.62 138.99 62.65 137.73 62.67C137.69 62.29 137.59 61.84 137.43 61.32C137.27 60.8 137.11 60.36 136.95 60C138.19 59.96 139.46 59.91 140.76 59.85C142.08 59.77 143.37 59.68 144.63 59.58C145.89 59.48 147.08 59.36 148.2 59.22C149.34 59.08 150.35 58.93 151.23 58.77ZM140.73 73.89V75.39H149.61V73.89H140.73ZM140.73 70.26V71.76H149.61V70.26H140.73ZM137.61 67.77H152.88V77.88H137.61V67.77ZM130.35 61.32H133.83V86.67H130.35V61.32ZM126.03 66.96H137.04V70.29H126.03V66.96ZM130.53 68.31L132.63 69.21C132.35 70.29 132.01 71.41 131.61 72.57C131.21 73.73 130.77 74.88 130.29 76.02C129.81 77.14 129.3 78.2 128.76 79.2C128.22 80.2 127.66 81.07 127.08 81.81C126.9 81.29 126.64 80.71 126.3 80.07C125.98 79.41 125.68 78.85 125.4 78.39C125.92 77.79 126.43 77.09 126.93 76.29C127.45 75.47 127.94 74.6 128.4 73.68C128.86 72.76 129.27 71.84 129.63 70.92C129.99 70 130.29 69.13 130.53 68.31ZM135 58.83L137.43 61.59C136.41 61.97 135.29 62.32 134.07 62.64C132.85 62.96 131.6 63.24 130.32 63.48C129.06 63.7 127.85 63.89 126.69 64.05C126.61 63.65 126.47 63.19 126.27 62.67C126.07 62.13 125.87 61.67 125.67 61.29C126.77 61.11 127.89 60.9 129.03 60.66C130.19 60.4 131.28 60.11 132.3 59.79C133.34 59.47 134.24 59.15 135 58.83ZM133.77 71.13C133.95 71.27 134.22 71.53 134.58 71.91C134.96 72.27 135.36 72.67 135.78 73.11C136.22 73.55 136.61 73.96 136.95 74.34C137.29 74.7 137.54 74.96 137.7 75.12L135.63 77.97C135.45 77.59 135.21 77.16 134.91 76.68C134.63 76.2 134.32 75.7 133.98 75.18C133.66 74.66 133.34 74.17 133.02 73.71C132.7 73.23 132.42 72.84 132.18 72.54L133.77 71.13ZM177.36 61.53H181.14V82.14C181.14 83.22 181 84.05 180.72 84.63C180.44 85.23 179.93 85.68 179.19 85.98C178.47 86.28 177.55 86.46 176.43 86.52C175.31 86.6 173.98 86.64 172.44 86.64C172.36 86.28 172.24 85.86 172.08 85.38C171.92 84.92 171.73 84.46 171.51 84C171.31 83.54 171.11 83.15 170.91 82.83C171.65 82.85 172.39 82.87 173.13 82.89C173.89 82.91 174.57 82.92 175.17 82.92C175.77 82.92 176.19 82.92 176.43 82.92C176.77 82.92 177.01 82.86 177.15 82.74C177.29 82.62 177.36 82.4 177.36 82.08V61.53ZM160.23 67.53H163.71V81.51H160.23V67.53ZM161.7 67.53H173.01V79.2H161.7V75.75H169.47V70.95H161.7V67.53ZM157.44 60.51H184.62V64.17H157.44V60.51ZM196.29 74.37L199.2 73.41C199.58 74.35 199.97 75.37 200.37 76.47C200.77 77.57 201.12 78.63 201.42 79.65C201.74 80.67 201.97 81.58 202.11 82.38L198.96 83.55C198.84 82.77 198.64 81.86 198.36 80.82C198.08 79.76 197.76 78.67 197.4 77.55C197.04 76.41 196.67 75.35 196.29 74.37ZM191.46 59.34L194.67 60.03C194.37 61.57 193.99 63.1 193.53 64.62C193.09 66.12 192.58 67.52 192 68.82C191.42 70.12 190.79 71.27 190.11 72.27C189.95 72.05 189.71 71.79 189.39 71.49C189.09 71.19 188.77 70.89 188.43 70.59C188.11 70.27 187.83 70.02 187.59 69.84C188.21 69 188.76 68.02 189.24 66.9C189.74 65.78 190.17 64.57 190.53 63.27C190.91 61.97 191.22 60.66 191.46 59.34ZM189.9 84.39C189.84 84.15 189.74 83.83 189.6 83.43C189.48 83.03 189.35 82.61 189.21 82.17C189.07 81.73 188.93 81.36 188.79 81.06C189.11 80.96 189.39 80.72 189.63 80.34C189.87 79.96 190.13 79.43 190.41 78.75C190.55 78.43 190.74 77.92 190.98 77.22C191.24 76.5 191.52 75.65 191.82 74.67C192.12 73.69 192.4 72.64 192.66 71.52C192.94 70.4 193.18 69.28 193.38 68.16L196.86 69.03C196.5 70.61 196.07 72.21 195.57 73.83C195.07 75.43 194.54 76.96 193.98 78.42C193.44 79.88 192.89 81.2 192.33 82.38V82.44C192.33 82.44 192.21 82.51 191.97 82.65C191.73 82.77 191.44 82.94 191.1 83.16C190.78 83.36 190.5 83.57 190.26 83.79C190.02 84.01 189.9 84.21 189.9 84.39ZM189.87 84.39L189.66 81.63L191.1 80.58L200.31 78.9C200.35 79.34 200.43 79.84 200.55 80.4C200.67 80.94 200.78 81.38 200.88 81.72C198.68 82.16 196.9 82.53 195.54 82.83C194.18 83.11 193.13 83.35 192.39 83.55C191.65 83.73 191.1 83.88 190.74 84C190.38 84.14 190.09 84.27 189.87 84.39ZM195.69 60.33L198.6 59.19C199.14 60.29 199.68 61.47 200.22 62.73C200.76 63.97 201.23 65.19 201.63 66.39C202.05 67.57 202.35 68.63 202.53 69.57L199.32 70.95C199.16 70.03 198.88 68.96 198.48 67.74C198.1 66.52 197.67 65.27 197.19 63.99C196.71 62.69 196.21 61.47 195.69 60.33ZM201.24 59.94H215.94V63.15H201.24V59.94ZM205.71 71.91V73.53H211.5V71.91H205.71ZM205.71 76.08V77.7H211.5V76.08H205.71ZM205.71 67.8V69.39H211.5V67.8H205.71ZM202.5 65.1H214.83V80.4H202.5V65.1ZM207.21 62.07L210.93 62.58C210.47 63.44 209.98 64.29 209.46 65.13C208.94 65.95 208.47 66.66 208.05 67.26L205.23 66.69C205.49 66.25 205.74 65.76 205.98 65.22C206.22 64.66 206.45 64.11 206.67 63.57C206.89 63.03 207.07 62.53 207.21 62.07ZM205.44 80.34L208.26 82.32C207.5 83.14 206.55 83.93 205.41 84.69C204.27 85.47 203.13 86.09 201.99 86.55C201.79 86.19 201.52 85.76 201.18 85.26C200.86 84.76 200.54 84.33 200.22 83.97C200.86 83.69 201.51 83.35 202.17 82.95C202.83 82.55 203.45 82.12 204.03 81.66C204.61 81.18 205.08 80.74 205.44 80.34ZM209.28 82.47L211.05 80.13C211.65 80.47 212.29 80.87 212.97 81.33C213.65 81.77 214.31 82.22 214.95 82.68C215.59 83.12 216.11 83.52 216.51 83.88L214.65 86.52C214.27 86.14 213.77 85.7 213.15 85.2C212.55 84.72 211.91 84.24 211.23 83.76C210.55 83.28 209.9 82.85 209.28 82.47ZM231.03 58.56H235.17C235.13 59.58 235.07 60.81 234.99 62.25C234.91 63.69 234.75 65.26 234.51 66.96C234.27 68.64 233.88 70.37 233.34 72.15C232.8 73.93 232.06 75.7 231.12 77.46C230.2 79.2 229.01 80.86 227.55 82.44C226.11 84 224.34 85.4 222.24 86.64C221.92 86.16 221.49 85.65 220.95 85.11C220.41 84.59 219.84 84.12 219.24 83.7C221.28 82.6 222.99 81.35 224.37 79.95C225.75 78.53 226.86 77.02 227.7 75.42C228.56 73.82 229.22 72.21 229.68 70.59C230.14 68.97 230.46 67.4 230.64 65.88C230.82 64.36 230.92 62.97 230.94 61.71C230.98 60.45 231.01 59.4 231.03 58.56ZM234.84 62.19C234.88 62.59 234.95 63.27 235.05 64.23C235.17 65.19 235.38 66.32 235.68 67.62C235.98 68.9 236.41 70.27 236.97 71.73C237.55 73.19 238.3 74.65 239.22 76.11C240.16 77.55 241.33 78.9 242.73 80.16C244.13 81.42 245.8 82.48 247.74 83.34C247.18 83.76 246.66 84.25 246.18 84.81C245.72 85.39 245.36 85.94 245.1 86.46C243.06 85.48 241.3 84.29 239.82 82.89C238.36 81.49 237.14 79.98 236.16 78.36C235.18 76.72 234.38 75.08 233.76 73.44C233.16 71.8 232.7 70.25 232.38 68.79C232.06 67.33 231.83 66.06 231.69 64.98C231.55 63.88 231.44 63.08 231.36 62.58L234.84 62.19ZM262.32 76.29C262.22 75.49 262.28 74.79 262.5 74.19C262.74 73.59 263.07 73.05 263.49 72.57C263.93 72.09 264.41 71.65 264.93 71.25C265.47 70.85 265.97 70.46 266.43 70.08C266.91 69.7 267.3 69.31 267.6 68.91C267.9 68.51 268.05 68.07 268.05 67.59C268.05 66.99 267.9 66.48 267.6 66.06C267.3 65.64 266.86 65.32 266.28 65.1C265.72 64.88 265.04 64.77 264.24 64.77C263.32 64.77 262.48 64.97 261.72 65.37C260.96 65.77 260.21 66.36 259.47 67.14L257.01 64.86C257.97 63.76 259.1 62.88 260.4 62.22C261.72 61.54 263.17 61.2 264.75 61.2C266.21 61.2 267.5 61.42 268.62 61.86C269.76 62.3 270.65 62.97 271.29 63.87C271.95 64.75 272.28 65.86 272.28 67.2C272.28 67.94 272.12 68.59 271.8 69.15C271.5 69.69 271.1 70.18 270.6 70.62C270.12 71.04 269.61 71.45 269.07 71.85C268.53 72.23 268.03 72.63 267.57 73.05C267.11 73.47 266.75 73.94 266.49 74.46C266.23 74.98 266.13 75.59 266.19 76.29H262.32ZM264.27 84.27C263.51 84.27 262.88 84.02 262.38 83.52C261.88 83.02 261.63 82.39 261.63 81.63C261.63 80.85 261.88 80.21 262.38 79.71C262.88 79.21 263.51 78.96 264.27 78.96C265.03 78.96 265.66 79.21 266.16 79.71C266.66 80.21 266.91 80.85 266.91 81.63C266.91 82.39 266.66 83.02 266.16 83.52C265.66 84.02 265.03 84.27 264.27 84.27Z" fill="#B65A0F"/>
<defs>
<filter id="filter0_d_6159_546" x="242.065" y="6.83568" width="34.2664" height="38.0122" filterUnits="userSpaceOnUse" color-interpolation-filters="sRGB">
<feFlood flood-opacity="0" result="BackgroundImageFix"/>
<feColorMatrix in="SourceAlpha" type="matrix" values="0 0 0 0 0 0 0 0 0 0 0 0 0 0 0 0 0 0 127 0" result="hardAlpha"/>
<feOffset/>
<feGaussianBlur stdDeviation="2.33216"/>
<feComposite in2="hardAlpha" operator="out"/>
<feColorMatrix type="matrix" values="0 0 0 0 1 0 0 0 0 1 0 0 0 0 1 0 0 0 0.1 0"/>
<feBlend mode="normal" in2="BackgroundImageFix" result="effect1_dropShadow_6159_546"/>
<feBlend mode="normal" in="SourceGraphic" in2="effect1_dropShadow_6159_546" result="shape"/>
</filter>
<filter id="filter1_d_6159_546" x="216.535" y="6.83568" width="34.2664" height="38.0122" filterUnits="userSpaceOnUse" color-interpolation-filters="sRGB">
<feFlood flood-opacity="0" result="BackgroundImageFix"/>
<feColorMatrix in="SourceAlpha" type="matrix" values="0 0 0 0 0 0 0 0 0 0 0 0 0 0 0 0 0 0 127 0" result="hardAlpha"/>
<feOffset/>
<feGaussianBlur stdDeviation="2.33216"/>
<feComposite in2="hardAlpha" operator="out"/>
<feColorMatrix type="matrix" values="0 0 0 0 1 0 0 0 0 1 0 0 0 0 1 0 0 0 0.1 0"/>
<feBlend mode="normal" in2="BackgroundImageFix" result="effect1_dropShadow_6159_546"/>
<feBlend mode="normal" in="SourceGraphic" in2="effect1_dropShadow_6159_546" result="shape"/>
</filter>
<filter id="filter2_d_6159_546" x="230.371" y="0.335684" width="32.1553" height="45.2437" filterUnits="userSpaceOnUse" color-interpolation-filters="sRGB">
<feFlood flood-opacity="0" result="BackgroundImageFix"/>
<feColorMatrix in="SourceAlpha" type="matrix" values="0 0 0 0 0 0 0 0 0 0 0 0 0 0 0 0 0 0 127 0" result="hardAlpha"/>
<feOffset/>
<feGaussianBlur stdDeviation="2.33216"/>
<feComposite in2="hardAlpha" operator="out"/>
<feColorMatrix type="matrix" values="0 0 0 0 1 0 0 0 0 1 0 0 0 0 1 0 0 0 0.1 0"/>
<feBlend mode="normal" in2="BackgroundImageFix" result="effect1_dropShadow_6159_546"/>
<feBlend mode="normal" in="SourceGraphic" in2="effect1_dropShadow_6159_546" result="shape"/>
</filter>
</defs>
</svg>
