<svg width="249" height="84" viewBox="0 0 249 84" fill="none" xmlns="http://www.w3.org/2000/svg">
<path d="M13.53 7.62L17.07 8.43C16.65 9.99 16.14 11.54 15.54 13.08C14.94 14.6 14.28 16.03 13.56 17.37C12.86 18.69 12.11 19.85 11.31 20.85C11.09 20.63 10.8 20.37 10.44 20.07C10.1 19.77 9.74 19.48 9.36 19.2C9 18.9 8.68 18.66 8.4 18.48C9.18 17.62 9.89 16.61 10.53 15.45C11.17 14.29 11.74 13.04 12.24 11.7C12.76 10.36 13.19 9 13.53 7.62ZM12.69 20.94L16.2 21.66C15.92 22.94 15.56 24.2 15.12 25.44C14.7 26.66 14.23 27.82 13.71 28.92C13.19 30 12.65 30.95 12.09 31.77C11.87 31.57 11.57 31.35 11.19 31.11C10.81 30.85 10.42 30.61 10.02 30.39C9.64 30.15 9.31 29.96 9.03 29.82C9.89 28.76 10.63 27.43 11.25 25.83C11.87 24.23 12.35 22.6 12.69 20.94ZM14.19 12.9H26.52V16.23H12.87L14.19 12.9ZM17.64 14.37H21.21V31.68C21.21 32.52 21.12 33.21 20.94 33.75C20.76 34.29 20.39 34.71 19.83 35.01C19.31 35.29 18.68 35.48 17.94 35.58C17.22 35.68 16.37 35.73 15.39 35.73C15.33 35.19 15.17 34.57 14.91 33.87C14.67 33.17 14.42 32.58 14.16 32.1C14.8 32.12 15.4 32.13 15.96 32.13C16.54 32.13 16.93 32.13 17.13 32.13C17.31 32.13 17.44 32.1 17.52 32.04C17.6 31.96 17.64 31.82 17.64 31.62V14.37ZM22.29 21.72L25.5 20.64C26.04 21.68 26.53 22.79 26.97 23.97C27.41 25.13 27.79 26.28 28.11 27.42C28.43 28.54 28.66 29.55 28.8 30.45L25.35 31.65C25.23 30.77 25.02 29.75 24.72 28.59C24.44 27.43 24.09 26.26 23.67 25.08C23.25 23.88 22.79 22.76 22.29 21.72ZM25.53 12.9H26.01L26.58 12.78L29.13 13.26C28.95 14.48 28.74 15.74 28.5 17.04C28.26 18.32 28.03 19.41 27.81 20.31L24.75 19.74C24.83 19.2 24.92 18.57 25.02 17.85C25.12 17.13 25.22 16.38 25.32 15.6C25.42 14.8 25.49 14.05 25.53 13.35V12.9ZM7.11 7.62L10.5 8.7C9.86 10.38 9.1 12.08 8.22 13.8C7.34 15.5 6.39 17.12 5.37 18.66C4.35 20.18 3.29 21.51 2.19 22.65C2.09 22.35 1.92 21.97 1.68 21.51C1.46 21.03 1.22 20.55 0.96 20.07C0.7 19.59 0.47 19.2 0.27 18.9C1.17 17.98 2.04 16.92 2.88 15.72C3.74 14.52 4.53 13.23 5.25 11.85C5.99 10.47 6.61 9.06 7.11 7.62ZM4.23 15.93L7.65 12.51V12.54V35.64H4.23V15.93ZM32.94 20.34H59.52V23.49H32.94V20.34ZM46.38 25.74H57.6V28.86H46.38V25.74ZM44.7 21.96H48.36V33.06H44.7V21.96ZM40.08 26.73C40.64 28.19 41.42 29.29 42.42 30.03C43.42 30.75 44.62 31.23 46.02 31.47C47.44 31.71 49.02 31.84 50.76 31.86C51.1 31.86 51.57 31.86 52.17 31.86C52.79 31.86 53.48 31.86 54.24 31.86C55 31.86 55.76 31.86 56.52 31.86C57.3 31.84 58.03 31.83 58.71 31.83C59.39 31.81 59.95 31.79 60.39 31.77C60.21 32.05 60.04 32.39 59.88 32.79C59.72 33.19 59.57 33.6 59.43 34.02C59.31 34.46 59.22 34.86 59.16 35.22H57.36H50.58C48.84 35.22 47.27 35.12 45.87 34.92C44.49 34.72 43.25 34.35 42.15 33.81C41.05 33.29 40.08 32.54 39.24 31.56C38.42 30.56 37.7 29.28 37.08 27.72L40.08 26.73ZM37.47 24.12L41.04 24.63C40.56 27.11 39.77 29.29 38.67 31.17C37.59 33.03 36.23 34.55 34.59 35.73C34.41 35.51 34.15 35.24 33.81 34.92C33.49 34.6 33.15 34.28 32.79 33.96C32.45 33.64 32.14 33.39 31.86 33.21C33.4 32.27 34.63 31.02 35.55 29.46C36.47 27.9 37.11 26.12 37.47 24.12ZM39.21 14.94V16.44H52.98V14.94H39.21ZM39.21 11.1V12.57H52.98V11.1H39.21ZM35.73 8.52H56.64V18.99H35.73V8.52ZM72.15 8.85H79.89V11.88H72.15V8.85ZM72.18 15.84H80.01V18.84H72.18V15.84ZM72.15 22.95H80.28V25.98H72.15V22.95ZM78.6 8.85H81.48C81.48 8.85 81.48 8.96 81.48 9.18C81.48 9.38 81.48 9.6 81.48 9.84C81.48 10.08 81.47 10.27 81.45 10.41C81.45 13.73 81.44 16.63 81.42 19.11C81.4 21.57 81.37 23.68 81.33 25.44C81.31 27.2 81.27 28.66 81.21 29.82C81.15 30.98 81.07 31.89 80.97 32.55C80.87 33.21 80.74 33.68 80.58 33.96C80.32 34.46 80.04 34.81 79.74 35.01C79.46 35.21 79.12 35.35 78.72 35.43C78.34 35.53 77.92 35.59 77.46 35.61C77 35.63 76.51 35.63 75.99 35.61C75.97 35.15 75.89 34.62 75.75 34.02C75.61 33.42 75.42 32.9 75.18 32.46C75.58 32.48 75.94 32.5 76.26 32.52C76.6 32.52 76.88 32.52 77.1 32.52C77.3 32.54 77.46 32.5 77.58 32.4C77.7 32.3 77.82 32.13 77.94 31.89C78.06 31.63 78.16 31.08 78.24 30.24C78.32 29.38 78.38 28.11 78.42 26.43C78.46 24.75 78.49 22.54 78.51 19.8C78.55 17.06 78.58 13.69 78.6 9.69V8.85ZM74.07 10.44H76.95V18.63C76.95 19.87 76.89 21.24 76.77 22.74C76.67 24.24 76.45 25.77 76.11 27.33C75.77 28.89 75.28 30.4 74.64 31.86C74 33.3 73.16 34.6 72.12 35.76C72 35.56 71.81 35.31 71.55 35.01C71.29 34.73 71.02 34.45 70.74 34.17C70.46 33.91 70.23 33.72 70.05 33.6C70.97 32.52 71.7 31.36 72.24 30.12C72.78 28.86 73.18 27.56 73.44 26.22C73.7 24.88 73.87 23.56 73.95 22.26C74.03 20.96 74.07 19.74 74.07 18.6V10.44ZM82.71 8.85H88.68V11.76H85.65V35.7H82.71V8.85ZM88.14 8.85H88.68L89.1 8.73L91.32 9.99C91.1 10.99 90.85 12.07 90.57 13.23C90.31 14.39 90.04 15.53 89.76 16.65C89.5 17.75 89.25 18.73 89.01 19.59C89.77 20.91 90.26 22.16 90.48 23.34C90.7 24.5 90.82 25.59 90.84 26.61C90.84 27.65 90.74 28.52 90.54 29.22C90.36 29.9 90.05 30.41 89.61 30.75C89.43 30.93 89.2 31.07 88.92 31.17C88.66 31.27 88.38 31.35 88.08 31.41C87.64 31.47 87.12 31.49 86.52 31.47C86.52 31.05 86.47 30.56 86.37 30C86.27 29.42 86.11 28.91 85.89 28.47C86.07 28.49 86.24 28.5 86.4 28.5C86.56 28.5 86.71 28.5 86.85 28.5C87.11 28.48 87.33 28.38 87.51 28.2C87.65 28.04 87.75 27.78 87.81 27.42C87.87 27.04 87.9 26.6 87.9 26.1C87.9 25.28 87.8 24.34 87.6 23.28C87.42 22.2 86.98 21.07 86.28 19.89C86.46 19.15 86.64 18.32 86.82 17.4C87 16.46 87.17 15.52 87.33 14.58C87.51 13.62 87.67 12.74 87.81 11.94C87.95 11.12 88.06 10.46 88.14 9.96V8.85ZM65.82 10.17H71.37V27.84H65.82V24.54H68.64V13.44H65.82V10.17ZM64.32 10.17H66.99V30.66H64.32V10.17ZM94.74 19.35H122.52V23.28H94.74V19.35ZM143.4 10.08H146.85V33.81H143.4V10.08ZM136.62 12.75H153.36V15.54H136.62V12.75ZM135.72 32.37H153.99V35.19H135.72V32.37ZM137.43 28.23H152.85V30.99H137.43V28.23ZM151.23 7.77L153.3 10.41C152.22 10.63 151.04 10.82 149.76 10.98C148.48 11.12 147.16 11.24 145.8 11.34C144.44 11.44 143.07 11.52 141.69 11.58C140.31 11.62 138.99 11.65 137.73 11.67C137.69 11.29 137.59 10.84 137.43 10.32C137.27 9.8 137.11 9.36 136.95 9C138.19 8.96 139.46 8.91 140.76 8.85C142.08 8.77 143.37 8.68 144.63 8.58C145.89 8.48 147.08 8.36 148.2 8.22C149.34 8.08 150.35 7.93 151.23 7.77ZM140.73 22.89V24.39H149.61V22.89H140.73ZM140.73 19.26V20.76H149.61V19.26H140.73ZM137.61 16.77H152.88V26.88H137.61V16.77ZM130.35 10.32H133.83V35.67H130.35V10.32ZM126.03 15.96H137.04V19.29H126.03V15.96ZM130.53 17.31L132.63 18.21C132.35 19.29 132.01 20.41 131.61 21.57C131.21 22.73 130.77 23.88 130.29 25.02C129.81 26.14 129.3 27.2 128.76 28.2C128.22 29.2 127.66 30.07 127.08 30.81C126.9 30.29 126.64 29.71 126.3 29.07C125.98 28.41 125.68 27.85 125.4 27.39C125.92 26.79 126.43 26.09 126.93 25.29C127.45 24.47 127.94 23.6 128.4 22.68C128.86 21.76 129.27 20.84 129.63 19.92C129.99 19 130.29 18.13 130.53 17.31ZM135 7.83L137.43 10.59C136.41 10.97 135.29 11.32 134.07 11.64C132.85 11.96 131.6 12.24 130.32 12.48C129.06 12.7 127.85 12.89 126.69 13.05C126.61 12.65 126.47 12.19 126.27 11.67C126.07 11.13 125.87 10.67 125.67 10.29C126.77 10.11 127.89 9.9 129.03 9.66C130.19 9.4 131.28 9.11 132.3 8.79C133.34 8.47 134.24 8.15 135 7.83ZM133.77 20.13C133.95 20.27 134.22 20.53 134.58 20.91C134.96 21.27 135.36 21.67 135.78 22.11C136.22 22.55 136.61 22.96 136.95 23.34C137.29 23.7 137.54 23.96 137.7 24.12L135.63 26.97C135.45 26.59 135.21 26.16 134.91 25.68C134.63 25.2 134.32 24.7 133.98 24.18C133.66 23.66 133.34 23.17 133.02 22.71C132.7 22.23 132.42 21.84 132.18 21.54L133.77 20.13ZM1.44 62.67H28.56V66.33H1.44V62.67ZM6.12 49.86L9.93 50.67C9.55 52.11 9.08 53.52 8.52 54.9C7.98 56.26 7.39 57.54 6.75 58.74C6.11 59.92 5.43 60.96 4.71 61.86C4.45 61.66 4.1 61.44 3.66 61.2C3.24 60.94 2.81 60.7 2.37 60.48C1.93 60.24 1.55 60.06 1.23 59.94C1.97 59.16 2.65 58.23 3.27 57.15C3.89 56.07 4.44 54.91 4.92 53.67C5.42 52.41 5.82 51.14 6.12 49.86ZM6.99 54.27H25.98V57.93H5.19L6.99 54.27ZM16.86 63.42C17.76 66.26 19.23 68.6 21.27 70.44C23.31 72.28 26.05 73.56 29.49 74.28C29.21 74.54 28.91 74.87 28.59 75.27C28.29 75.67 28 76.08 27.72 76.5C27.46 76.94 27.24 77.34 27.06 77.7C24.58 77.06 22.47 76.13 20.73 74.91C18.99 73.69 17.53 72.19 16.35 70.41C15.19 68.63 14.22 66.56 13.44 64.2L16.86 63.42ZM12.96 49.5H16.74V59.07C16.74 60.47 16.65 61.89 16.47 63.33C16.31 64.77 15.97 66.18 15.45 67.56C14.93 68.94 14.17 70.26 13.17 71.52C12.17 72.76 10.85 73.91 9.21 74.97C7.59 76.01 5.58 76.9 3.18 77.64C3.04 77.34 2.83 76.99 2.55 76.59C2.29 76.19 2.01 75.79 1.71 75.39C1.41 75.01 1.13 74.7 0.87 74.46C3.03 73.84 4.84 73.09 6.3 72.21C7.76 71.33 8.93 70.37 9.81 69.33C10.71 68.29 11.38 67.2 11.82 66.06C12.28 64.9 12.58 63.73 12.72 62.55C12.88 61.37 12.96 60.2 12.96 59.04V49.5ZM42.87 65.58H58.71V68.82H42.87V65.58ZM41.13 73.59H60.24V76.86H41.13V73.59ZM41.58 52.77H60.03V58.41H56.76V55.74H44.7V58.5H41.58V52.77ZM48.87 67.14H52.41V75.15H48.87V67.14ZM31.92 65.73C33.12 65.43 34.56 65.04 36.24 64.56C37.94 64.06 39.65 63.55 41.37 63.03L41.91 66.21C40.33 66.75 38.72 67.28 37.08 67.8C35.46 68.32 33.97 68.8 32.61 69.24L31.92 65.73ZM32.34 55.23H41.22V58.56H32.34V55.23ZM35.46 49.53H38.76V73.89C38.76 74.71 38.67 75.36 38.49 75.84C38.33 76.34 38.02 76.73 37.56 77.01C37.12 77.29 36.56 77.48 35.88 77.58C35.22 77.68 34.39 77.72 33.39 77.7C33.35 77.26 33.24 76.71 33.06 76.05C32.88 75.41 32.68 74.85 32.46 74.37C33.02 74.39 33.53 74.41 33.99 74.43C34.47 74.43 34.8 74.42 34.98 74.4C35.16 74.4 35.28 74.37 35.34 74.31C35.42 74.23 35.46 74.09 35.46 73.89V49.53ZM47.79 50.22L51.15 49.23C51.51 49.91 51.87 50.65 52.23 51.45C52.59 52.25 52.87 52.94 53.07 53.52L49.62 54.69C49.44 54.09 49.17 53.37 48.81 52.53C48.47 51.69 48.13 50.92 47.79 50.22ZM46.86 55.26H50.13C50.07 56.52 49.95 57.64 49.77 58.62C49.59 59.58 49.26 60.44 48.78 61.2C48.32 61.94 47.65 62.58 46.77 63.12C45.91 63.66 44.78 64.1 43.38 64.44C43.26 64.06 43.03 63.61 42.69 63.09C42.35 62.57 42.02 62.17 41.7 61.89C42.84 61.63 43.74 61.32 44.4 60.96C45.08 60.6 45.59 60.16 45.93 59.64C46.29 59.1 46.53 58.47 46.65 57.75C46.77 57.03 46.84 56.2 46.86 55.26ZM51.6 54.96H54.81V59.85C54.81 60.23 54.85 60.5 54.93 60.66C55.01 60.82 55.18 60.9 55.44 60.9C55.54 60.9 55.7 60.9 55.92 60.9C56.14 60.9 56.38 60.9 56.64 60.9C56.9 60.9 57.14 60.9 57.36 60.9C57.58 60.9 57.75 60.9 57.87 60.9C58.15 60.9 58.48 60.89 58.86 60.87C59.24 60.83 59.54 60.78 59.76 60.72C59.8 61.14 59.84 61.62 59.88 62.16C59.92 62.7 59.98 63.16 60.06 63.54C59.82 63.64 59.5 63.71 59.1 63.75C58.72 63.77 58.33 63.78 57.93 63.78C57.81 63.78 57.63 63.78 57.39 63.78C57.15 63.78 56.89 63.78 56.61 63.78C56.33 63.78 56.07 63.78 55.83 63.78C55.59 63.78 55.41 63.78 55.29 63.78C54.29 63.78 53.52 63.65 52.98 63.39C52.46 63.11 52.1 62.68 51.9 62.1C51.7 61.52 51.6 60.76 51.6 59.82V54.96ZM66.69 54.39H75.9V74.58H66.69V71.43H72.66V57.51H66.69V54.39ZM64.59 54.39H67.86V76.8H64.59V54.39ZM66.57 62.4H74.22V65.52H66.57V62.4ZM68.88 49.5L72.78 50.07C72.46 51.09 72.11 52.1 71.73 53.1C71.37 54.1 71.04 54.95 70.74 55.65L67.86 54.99C68 54.47 68.13 53.89 68.25 53.25C68.39 52.61 68.52 51.96 68.64 51.3C68.76 50.64 68.84 50.04 68.88 49.5ZM79.86 54.15H88.65V57.45H79.86V54.15ZM87.39 54.15H90.72C90.72 54.15 90.72 54.26 90.72 54.48C90.72 54.68 90.72 54.91 90.72 55.17C90.72 55.43 90.71 55.63 90.69 55.77C90.61 59.15 90.51 62.02 90.39 64.38C90.29 66.72 90.16 68.66 90 70.2C89.86 71.72 89.69 72.91 89.49 73.77C89.29 74.63 89.03 75.26 88.71 75.66C88.31 76.24 87.88 76.64 87.42 76.86C86.96 77.08 86.43 77.24 85.83 77.34C85.25 77.42 84.53 77.45 83.67 77.43C82.83 77.43 81.97 77.42 81.09 77.4C81.07 76.9 80.95 76.31 80.73 75.63C80.51 74.97 80.24 74.39 79.92 73.89C80.88 73.97 81.77 74.02 82.59 74.04C83.43 74.06 84.04 74.07 84.42 74.07C84.72 74.07 84.96 74.04 85.14 73.98C85.34 73.9 85.53 73.76 85.71 73.56C85.97 73.3 86.18 72.77 86.34 71.97C86.52 71.15 86.67 70 86.79 68.52C86.91 67.04 87.02 65.17 87.12 62.91C87.22 60.65 87.31 57.96 87.39 54.84V54.15ZM79.95 49.53L83.43 50.34C83.05 51.8 82.58 53.26 82.02 54.72C81.48 56.18 80.88 57.56 80.22 58.86C79.58 60.14 78.92 61.26 78.24 62.22C78.04 62.02 77.75 61.79 77.37 61.53C77.01 61.25 76.64 60.98 76.26 60.72C75.9 60.46 75.58 60.26 75.3 60.12C75.96 59.26 76.58 58.27 77.16 57.15C77.76 56.01 78.29 54.79 78.75 53.49C79.23 52.17 79.63 50.85 79.95 49.53ZM78.48 62.82L81.3 61.23C81.8 61.91 82.33 62.66 82.89 63.48C83.45 64.3 83.98 65.1 84.48 65.88C84.98 66.66 85.39 67.35 85.71 67.95L82.65 69.81C82.37 69.19 81.99 68.48 81.51 67.68C81.05 66.88 80.55 66.06 80.01 65.22C79.49 64.36 78.98 63.56 78.48 62.82ZM114.96 52.53H118.74V73.14C118.74 74.22 118.6 75.05 118.32 75.63C118.04 76.23 117.53 76.68 116.79 76.98C116.07 77.28 115.15 77.46 114.03 77.52C112.91 77.6 111.58 77.64 110.04 77.64C109.96 77.28 109.84 76.86 109.68 76.38C109.52 75.92 109.33 75.46 109.11 75C108.91 74.54 108.71 74.15 108.51 73.83C109.25 73.85 109.99 73.87 110.73 73.89C111.49 73.91 112.17 73.92 112.77 73.92C113.37 73.92 113.79 73.92 114.03 73.92C114.37 73.92 114.61 73.86 114.75 73.74C114.89 73.62 114.96 73.4 114.96 73.08V52.53ZM97.83 58.53H101.31V72.51H97.83V58.53ZM99.3 58.53H110.61V70.2H99.3V66.75H107.07V61.95H99.3V58.53ZM95.04 51.51H122.22V55.17H95.04V51.51ZM133.89 65.37L136.8 64.41C137.18 65.35 137.57 66.37 137.97 67.47C138.37 68.57 138.72 69.63 139.02 70.65C139.34 71.67 139.57 72.58 139.71 73.38L136.56 74.55C136.44 73.77 136.24 72.86 135.96 71.82C135.68 70.76 135.36 69.67 135 68.55C134.64 67.41 134.27 66.35 133.89 65.37ZM129.06 50.34L132.27 51.03C131.97 52.57 131.59 54.1 131.13 55.62C130.69 57.12 130.18 58.52 129.6 59.82C129.02 61.12 128.39 62.27 127.71 63.27C127.55 63.05 127.31 62.79 126.99 62.49C126.69 62.19 126.37 61.89 126.03 61.59C125.71 61.27 125.43 61.02 125.19 60.84C125.81 60 126.36 59.02 126.84 57.9C127.34 56.78 127.77 55.57 128.13 54.27C128.51 52.97 128.82 51.66 129.06 50.34ZM127.5 75.39C127.44 75.15 127.34 74.83 127.2 74.43C127.08 74.03 126.95 73.61 126.81 73.17C126.67 72.73 126.53 72.36 126.39 72.06C126.71 71.96 126.99 71.72 127.23 71.34C127.47 70.96 127.73 70.43 128.01 69.75C128.15 69.43 128.34 68.92 128.58 68.22C128.84 67.5 129.12 66.65 129.42 65.67C129.72 64.69 130 63.64 130.26 62.52C130.54 61.4 130.78 60.28 130.98 59.16L134.46 60.03C134.1 61.61 133.67 63.21 133.17 64.83C132.67 66.43 132.14 67.96 131.58 69.42C131.04 70.88 130.49 72.2 129.93 73.38V73.44C129.93 73.44 129.81 73.51 129.57 73.65C129.33 73.77 129.04 73.94 128.7 74.16C128.38 74.36 128.1 74.57 127.86 74.79C127.62 75.01 127.5 75.21 127.5 75.39ZM127.47 75.39L127.26 72.63L128.7 71.58L137.91 69.9C137.95 70.34 138.03 70.84 138.15 71.4C138.27 71.94 138.38 72.38 138.48 72.72C136.28 73.16 134.5 73.53 133.14 73.83C131.78 74.11 130.73 74.35 129.99 74.55C129.25 74.73 128.7 74.88 128.34 75C127.98 75.14 127.69 75.27 127.47 75.39ZM133.29 51.33L136.2 50.19C136.74 51.29 137.28 52.47 137.82 53.73C138.36 54.97 138.83 56.19 139.23 57.39C139.65 58.57 139.95 59.63 140.13 60.57L136.92 61.95C136.76 61.03 136.48 59.96 136.08 58.74C135.7 57.52 135.27 56.27 134.79 54.99C134.31 53.69 133.81 52.47 133.29 51.33ZM138.84 50.94H153.54V54.15H138.84V50.94ZM143.31 62.91V64.53H149.1V62.91H143.31ZM143.31 67.08V68.7H149.1V67.08H143.31ZM143.31 58.8V60.39H149.1V58.8H143.31ZM140.1 56.1H152.43V71.4H140.1V56.1ZM144.81 53.07L148.53 53.58C148.07 54.44 147.58 55.29 147.06 56.13C146.54 56.95 146.07 57.66 145.65 58.26L142.83 57.69C143.09 57.25 143.34 56.76 143.58 56.22C143.82 55.66 144.05 55.11 144.27 54.57C144.49 54.03 144.67 53.53 144.81 53.07ZM143.04 71.34L145.86 73.32C145.1 74.14 144.15 74.93 143.01 75.69C141.87 76.47 140.73 77.09 139.59 77.55C139.39 77.19 139.12 76.76 138.78 76.26C138.46 75.76 138.14 75.33 137.82 74.97C138.46 74.69 139.11 74.35 139.77 73.95C140.43 73.55 141.05 73.12 141.63 72.66C142.21 72.18 142.68 71.74 143.04 71.34ZM146.88 73.47L148.65 71.13C149.25 71.47 149.89 71.87 150.57 72.33C151.25 72.77 151.91 73.22 152.55 73.68C153.19 74.12 153.71 74.52 154.11 74.88L152.25 77.52C151.87 77.14 151.37 76.7 150.75 76.2C150.15 75.72 149.51 75.24 148.83 74.76C148.15 74.28 147.5 73.85 146.88 73.47ZM170.25 50.82H184.59V53.55H170.25V50.82ZM175.56 60.42H179.28V62.67H175.56V60.42ZM175.56 64.98H179.28V67.23H175.56V64.98ZM172.62 69.54H182.79V72.09H172.62V69.54ZM174.75 57.54H176.73V70.62H174.75V57.54ZM178.14 57.54H180.12V70.65H178.14V57.54ZM175.92 52.02L179.49 52.17C179.29 53.11 179.06 54.04 178.8 54.96C178.56 55.88 178.33 56.67 178.11 57.33L175.44 57C175.52 56.5 175.59 55.96 175.65 55.38C175.73 54.8 175.79 54.22 175.83 53.64C175.87 53.04 175.9 52.5 175.92 52.02ZM170.79 55.68H184.26V72.99H181.53V58.2H173.43V73.02H170.79V55.68ZM157.38 51.81H169.86V54.39H157.38V51.81ZM159.66 64.98C160.32 67 161.14 68.62 162.12 69.84C163.1 71.06 164.23 71.99 165.51 72.63C166.81 73.25 168.23 73.67 169.77 73.89C171.33 74.11 173.02 74.22 174.84 74.22C175.18 74.22 175.68 74.22 176.34 74.22C177.02 74.22 177.78 74.22 178.62 74.22C179.48 74.22 180.34 74.22 181.2 74.22C182.08 74.2 182.88 74.19 183.6 74.19C184.34 74.19 184.91 74.18 185.31 74.16C185.13 74.4 184.95 74.71 184.77 75.09C184.61 75.47 184.46 75.86 184.32 76.26C184.2 76.66 184.1 77.01 184.02 77.31H182.34H174.75C172.61 77.31 170.65 77.16 168.87 76.86C167.09 76.58 165.47 76.04 164.01 75.24C162.57 74.44 161.3 73.29 160.2 71.79C159.1 70.27 158.18 68.29 157.44 65.85L159.66 64.98ZM161.94 63.03L164.64 63.75C163.98 65.43 163.1 67.03 162 68.55C160.92 70.05 159.72 71.3 158.4 72.3C158.32 72.08 158.18 71.81 157.98 71.49C157.8 71.15 157.61 70.82 157.41 70.5C157.21 70.18 157.02 69.92 156.84 69.72C157.92 68.94 158.91 67.97 159.81 66.81C160.73 65.63 161.44 64.37 161.94 63.03ZM159.03 54.72L161.1 55.32C160.78 56.42 160.34 57.52 159.78 58.62C159.24 59.72 158.66 60.66 158.04 61.44C157.92 61.2 157.72 60.87 157.44 60.45C157.18 60.01 156.94 59.68 156.72 59.46C157.22 58.84 157.67 58.11 158.07 57.27C158.47 56.43 158.79 55.58 159.03 54.72ZM162.18 65.13H167.25V67.68H160.89L162.18 65.13ZM166.38 65.13H167.01L167.52 65.04L169.35 65.91C168.75 67.95 167.91 69.75 166.83 71.31C165.77 72.85 164.53 74.15 163.11 75.21C161.69 76.29 160.15 77.15 158.49 77.79C158.39 77.55 158.23 77.27 158.01 76.95C157.81 76.63 157.59 76.31 157.35 75.99C157.13 75.69 156.92 75.46 156.72 75.3C158.26 74.76 159.68 74.05 160.98 73.17C162.28 72.29 163.39 71.22 164.31 69.96C165.25 68.7 165.94 67.26 166.38 65.64V65.13ZM162.33 49.53H165.33V60.96H162.33V49.53ZM158.82 57.84L160.14 56.43C160.54 56.77 160.94 57.16 161.34 57.6C161.74 58.02 162.05 58.38 162.27 58.68L160.89 60.27C160.67 59.95 160.36 59.56 159.96 59.1C159.56 58.64 159.18 58.22 158.82 57.84ZM167.07 54.66L169.08 55.17C168.86 56.01 168.56 56.87 168.18 57.75C167.8 58.63 167.41 59.38 167.01 60C166.83 59.84 166.56 59.65 166.2 59.43C165.84 59.19 165.54 59.01 165.3 58.89C165.68 58.29 166.02 57.62 166.32 56.88C166.62 56.14 166.87 55.4 167.07 54.66ZM166.98 57.93L168.36 56.52C168.76 56.86 169.17 57.24 169.59 57.66C170.01 58.08 170.33 58.43 170.55 58.71L169.08 60.33C168.86 59.99 168.55 59.6 168.15 59.16C167.75 58.7 167.36 58.29 166.98 57.93ZM162.66 59.25L164.94 60.18C164.46 60.78 163.86 61.39 163.14 62.01C162.42 62.61 161.66 63.17 160.86 63.69C160.06 64.19 159.27 64.6 158.49 64.92C158.27 64.58 157.97 64.19 157.59 63.75C157.21 63.31 156.87 62.95 156.57 62.67C157.31 62.45 158.06 62.16 158.82 61.8C159.6 61.44 160.33 61.04 161.01 60.6C161.69 60.16 162.24 59.71 162.66 59.25ZM165.15 59.22C165.41 59.34 165.78 59.53 166.26 59.79C166.74 60.05 167.25 60.34 167.79 60.66C168.33 60.96 168.83 61.24 169.29 61.5C169.75 61.76 170.09 61.95 170.31 62.07L168.75 64.5C168.45 64.24 168.07 63.94 167.61 63.6C167.15 63.26 166.67 62.91 166.17 62.55C165.67 62.19 165.19 61.86 164.73 61.56C164.27 61.24 163.87 60.98 163.53 60.78L165.15 59.22ZM195.84 49.35L199.53 50.46C198.87 51.98 198.07 53.47 197.13 54.93C196.21 56.39 195.21 57.75 194.13 59.01C193.05 60.25 191.97 61.32 190.89 62.22C190.67 61.98 190.38 61.69 190.02 61.35C189.68 61.01 189.32 60.67 188.94 60.33C188.56 59.97 188.23 59.7 187.95 59.52C189.03 58.72 190.07 57.79 191.07 56.73C192.07 55.67 192.97 54.51 193.77 53.25C194.59 51.97 195.28 50.67 195.84 49.35ZM195.75 53.43H211.62V56.82H194.04L195.75 53.43ZM210.27 53.43H213.93C213.93 53.43 213.93 53.53 213.93 53.73C213.93 53.91 213.93 54.12 213.93 54.36C213.93 54.58 213.92 54.77 213.9 54.93C213.82 57.29 213.74 59.31 213.66 60.99C213.6 62.65 213.51 64.03 213.39 65.13C213.29 66.23 213.17 67.1 213.03 67.74C212.89 68.36 212.71 68.81 212.49 69.09C212.19 69.55 211.86 69.88 211.5 70.08C211.14 70.26 210.74 70.39 210.3 70.47C209.9 70.53 209.39 70.57 208.77 70.59C208.17 70.61 207.52 70.61 206.82 70.59C206.8 70.07 206.7 69.49 206.52 68.85C206.36 68.21 206.14 67.66 205.86 67.2C206.38 67.24 206.85 67.27 207.27 67.29C207.71 67.31 208.06 67.31 208.32 67.29C208.54 67.31 208.72 67.29 208.86 67.23C209 67.15 209.14 67.02 209.28 66.84C209.42 66.66 209.54 66.31 209.64 65.79C209.74 65.25 209.83 64.5 209.91 63.54C209.99 62.56 210.06 61.3 210.12 59.76C210.18 58.2 210.23 56.32 210.27 54.12V53.43ZM192.87 58.98H196.41V71.73C196.41 72.29 196.49 72.72 196.65 73.02C196.83 73.3 197.18 73.49 197.7 73.59C198.22 73.67 199 73.71 200.04 73.71C200.28 73.71 200.64 73.71 201.12 73.71C201.6 73.71 202.15 73.71 202.77 73.71C203.39 73.71 204.04 73.71 204.72 73.71C205.4 73.71 206.06 73.71 206.7 73.71C207.34 73.71 207.91 73.71 208.41 73.71C208.93 73.71 209.33 73.71 209.61 73.71C210.45 73.71 211.08 73.63 211.5 73.47C211.94 73.29 212.25 72.96 212.43 72.48C212.61 72 212.76 71.29 212.88 70.35C213.32 70.63 213.88 70.89 214.56 71.13C215.24 71.37 215.83 71.53 216.33 71.61C216.15 73.01 215.84 74.11 215.4 74.91C214.98 75.71 214.34 76.27 213.48 76.59C212.62 76.91 211.42 77.07 209.88 77.07C209.66 77.07 209.29 77.07 208.77 77.07C208.25 77.07 207.65 77.07 206.97 77.07C206.31 77.07 205.62 77.07 204.9 77.07C204.18 77.07 203.48 77.07 202.8 77.07C202.14 77.07 201.56 77.07 201.06 77.07C200.58 77.07 200.23 77.07 200.01 77.07C198.17 77.07 196.73 76.92 195.69 76.62C194.65 76.32 193.92 75.78 193.5 75C193.08 74.24 192.87 73.16 192.87 71.76V58.98ZM193.89 58.98H205.65V68.67H193.89V65.49H202.11V62.16H193.89V58.98ZM231.12 67.29C231.02 66.49 231.08 65.79 231.3 65.19C231.54 64.59 231.87 64.05 232.29 63.57C232.73 63.09 233.21 62.65 233.73 62.25C234.27 61.85 234.77 61.46 235.23 61.08C235.71 60.7 236.1 60.31 236.4 59.91C236.7 59.51 236.85 59.07 236.85 58.59C236.85 57.99 236.7 57.48 236.4 57.06C236.1 56.64 235.66 56.32 235.08 56.1C234.52 55.88 233.84 55.77 233.04 55.77C232.12 55.77 231.28 55.97 230.52 56.37C229.76 56.77 229.01 57.36 228.27 58.14L225.81 55.86C226.77 54.76 227.9 53.88 229.2 53.22C230.52 52.54 231.97 52.2 233.55 52.2C235.01 52.2 236.3 52.42 237.42 52.86C238.56 53.3 239.45 53.97 240.09 54.87C240.75 55.75 241.08 56.86 241.08 58.2C241.08 58.94 240.92 59.59 240.6 60.15C240.3 60.69 239.9 61.18 239.4 61.62C238.92 62.04 238.41 62.45 237.87 62.85C237.33 63.23 236.83 63.63 236.37 64.05C235.91 64.47 235.55 64.94 235.29 65.46C235.03 65.98 234.93 66.59 234.99 67.29H231.12ZM233.07 75.27C232.31 75.27 231.68 75.02 231.18 74.52C230.68 74.02 230.43 73.39 230.43 72.63C230.43 71.85 230.68 71.21 231.18 70.71C231.68 70.21 232.31 69.96 233.07 69.96C233.83 69.96 234.46 70.21 234.96 70.71C235.46 71.21 235.71 71.85 235.71 72.63C235.71 73.39 235.46 74.02 234.96 74.52C234.46 75.02 233.83 75.27 233.07 75.27Z" fill="#B65A0F"/>
<ellipse cx="14.2785" cy="8.45316" rx="14.2785" ry="8.45316" transform="matrix(-0.77313 -0.634248 -0.634248 0.77313 236.866 32.5537)" fill="#F3BD13"/>
<ellipse cx="182.401" cy="30.033" rx="14.2785" ry="8.45316" transform="rotate(-39.3642 182.401 30.033)" fill="#F3BD13"/>
<g filter="url(#filter0_d_6102_25)">
<path d="M208.944 15.1612C210.656 12.0067 214.477 10.659 217.789 12.0416L222.364 13.9515C225.676 15.3341 227.405 18.9985 226.366 22.4337L222.501 35.21C221.301 39.1774 216.934 41.2375 213.109 39.6407L206.032 36.6866C202.207 35.0898 200.601 30.5364 202.578 26.8932L208.944 15.1612Z" fill="#F3BD13"/>
</g>
<g filter="url(#filter1_d_6102_25)">
<path d="M193.922 15.1612C192.21 12.0067 188.389 10.659 185.077 12.0416L180.502 13.9515C177.19 15.3341 175.461 18.9985 176.501 22.4337L180.365 35.21C181.565 39.1774 185.932 41.2375 189.757 39.6407L196.834 36.6866C200.659 35.0898 202.265 30.5364 200.288 26.8932L193.922 15.1612Z" fill="#F3BD13"/>
</g>
<g filter="url(#filter2_d_6102_25)">
<path d="M190.069 12.6747C189.668 8.56211 192.901 5 197.033 5H205.865C209.997 5 213.229 8.56211 212.828 12.6747L210.693 34.597C210.344 38.1814 207.331 40.9152 203.73 40.9152H199.168C195.567 40.9152 192.553 38.1814 192.204 34.597L190.069 12.6747Z" fill="#F3BD13"/>
</g>
<path d="M188.375 20.7218C188.375 19.697 189.206 18.8662 190.231 18.8662H194.399C195.423 18.8662 196.254 19.697 196.254 20.7218V22.9678C196.254 25.1434 194.491 26.9071 192.315 26.9071V26.9071C190.139 26.9071 188.375 25.1434 188.375 22.9678V20.7218Z" fill="#FFEDB2"/>
<path d="M206.654 20.7218C206.654 19.697 207.485 18.8662 208.51 18.8662H212.677C213.702 18.8662 214.533 19.697 214.533 20.7218V22.9678C214.533 25.1434 212.769 26.9071 210.594 26.9071V26.9071C208.418 26.9071 206.654 25.1434 206.654 22.9678V20.7218Z" fill="#FFEDB2"/>
<defs>
<filter id="filter0_d_6102_25" x="197.065" y="6.83568" width="34.2664" height="38.0122" filterUnits="userSpaceOnUse" color-interpolation-filters="sRGB">
<feFlood flood-opacity="0" result="BackgroundImageFix"/>
<feColorMatrix in="SourceAlpha" type="matrix" values="0 0 0 0 0 0 0 0 0 0 0 0 0 0 0 0 0 0 127 0" result="hardAlpha"/>
<feOffset/>
<feGaussianBlur stdDeviation="2.33216"/>
<feComposite in2="hardAlpha" operator="out"/>
<feColorMatrix type="matrix" values="0 0 0 0 1 0 0 0 0 1 0 0 0 0 1 0 0 0 0.1 0"/>
<feBlend mode="normal" in2="BackgroundImageFix" result="effect1_dropShadow_6102_25"/>
<feBlend mode="normal" in="SourceGraphic" in2="effect1_dropShadow_6102_25" result="shape"/>
</filter>
<filter id="filter1_d_6102_25" x="171.535" y="6.83568" width="34.2664" height="38.0122" filterUnits="userSpaceOnUse" color-interpolation-filters="sRGB">
<feFlood flood-opacity="0" result="BackgroundImageFix"/>
<feColorMatrix in="SourceAlpha" type="matrix" values="0 0 0 0 0 0 0 0 0 0 0 0 0 0 0 0 0 0 127 0" result="hardAlpha"/>
<feOffset/>
<feGaussianBlur stdDeviation="2.33216"/>
<feComposite in2="hardAlpha" operator="out"/>
<feColorMatrix type="matrix" values="0 0 0 0 1 0 0 0 0 1 0 0 0 0 1 0 0 0 0.1 0"/>
<feBlend mode="normal" in2="BackgroundImageFix" result="effect1_dropShadow_6102_25"/>
<feBlend mode="normal" in="SourceGraphic" in2="effect1_dropShadow_6102_25" result="shape"/>
</filter>
<filter id="filter2_d_6102_25" x="185.371" y="0.335684" width="32.1553" height="45.2437" filterUnits="userSpaceOnUse" color-interpolation-filters="sRGB">
<feFlood flood-opacity="0" result="BackgroundImageFix"/>
<feColorMatrix in="SourceAlpha" type="matrix" values="0 0 0 0 0 0 0 0 0 0 0 0 0 0 0 0 0 0 127 0" result="hardAlpha"/>
<feOffset/>
<feGaussianBlur stdDeviation="2.33216"/>
<feComposite in2="hardAlpha" operator="out"/>
<feColorMatrix type="matrix" values="0 0 0 0 1 0 0 0 0 1 0 0 0 0 1 0 0 0 0.1 0"/>
<feBlend mode="normal" in2="BackgroundImageFix" result="effect1_dropShadow_6102_25"/>
<feBlend mode="normal" in="SourceGraphic" in2="effect1_dropShadow_6102_25" result="shape"/>
</filter>
</defs>
</svg>
